<svg version="1.1" id="Layer_1" xmlns="http://www.w3.org/2000/svg" xmlns:xlink="http://www.w3.org/1999/xlink" x="0" y="0" viewBox="0 0 1441 735" xml:space="preserve">
  <style>
    .st0{clip-path:url(#SVGID_00000179621541564295197440000001100753027602440126_)}.st1{clip-path:url(#SVGID_00000143612810717153377210000000937936733785685138_)}
  </style>
  <defs>
    <path id="SVGID_1_" d="M0 0h1441v735H0z"/>
  </defs>
  <clipPath id="SVGID_00000068667405859966756560000001830267686674829705_">
    <use xlink:href="#SVGID_1_" overflow="visible"/>
  </clipPath>
  <g clip-path="url(#SVGID_00000068667405859966756560000001830267686674829705_)">
    <defs>
      <path id="SVGID_00000081610530789529079650000002763865149718024098_" d="M-4-145h1450V881H-4z"/>
    </defs>
    <clipPath id="SVGID_00000163791246781577149960000005535536260373790634_">
      <use xlink:href="#SVGID_00000081610530789529079650000002763865149718024098_" overflow="visible"/>
    </clipPath>
    <g clip-path="url(#SVGID_00000163791246781577149960000005535536260373790634_)">
      <path d="M1446 719c-25 6-49.9 12.7-75.1 18.1-32 6.9-64.2 13.6-96.6 19.1-25.7 4.3-51.7 5.2-77.5 2.6-10.2-1-20.3-3.8-30.1-6.5-35.5-9.8-63-32.4-88.7-57.2-26.9-26-52.3-53.4-78.5-80.1-24.1-24.6-49.1-48.2-78-67.1-22.7-14.6-47.4-23.2-74.2-26.3-22.9-2.6-45.8-5.9-68.4-10.2-39.3-7.4-78.4-16.2-117.6-23.4-27.2-5-54.8-8.3-82.3-12.2-30.7-4.5-59.8-13.9-88.2-26.3-40.1-17.6-77.7-40.1-115.2-62.3-32.9-19.6-66.1-38.7-101.6-53.5-24.1-10.2-48.9-17.4-75.4-15.5-22.2 1.5-43.2 7.7-63.7 16.2-42.2 17.2-80.8 41.1-119 65.6-5.7 3.6-11.4 7.2-17.9 11.4 0-8.6 0-16.5.2-24.3 0-.9 1.2-2.1 2.1-2.6 39.3-24.4 78.9-48.6 121.6-66.6 20.8-8.8 42.4-16 64.9-18.6 23.2-2.8 45.6.5 67.7 7.7 34.4 11.4 66.3 28.1 97.8 45.6 35 19.5 69.7 39.4 105.2 58.4 32 17 65.4 30.8 101.4 37.2 19.8 3.4 40 6 59.9 9.1 37.2 5.9 73.5 15.2 109.7 25 16.4 4.5 32.5 9 49.1 12.1 26.5 5 53 9.3 79.7 13.3 28.2 4.3 53.4 15.5 76.5 32 25.8 18.4 48.6 40.5 70.6 63.4 26.5 27.5 52.2 56.1 81.3 81.3 21 18.2 43.4 34.1 69.6 43.9 15.3 5.7 31.3 8.4 47.7 9.1 38.2 1.7 76-3.6 113-12.1 42.7-9.6 85.2-20.5 127.9-30.8.9-.2 1.7-.3 2.8-.5v25h-.7z"/>
      <path d="M1446 769.6c-42 9-83.9 18.4-126.1 26.5-35.3 6.9-71.1 10.3-107.1 7.7-18.3-1.2-35.5-5.9-52.2-13.6-29.6-13.6-54.6-33.6-77.3-56.5-28.2-28.2-55.6-57.5-83.5-86.4-24.8-25.8-50.8-50.3-80.9-70.1-24.6-16.4-51.7-25.5-81.3-27.7-27.2-2.1-54.2-5.3-81.5-8.1-31-3.1-62.2-5.9-93.3-9.1-29.4-3.1-58.9-5.7-88.2-9.8-31-4.5-59.9-16-88-29.6-38.7-18.8-75.1-41.8-111.4-64.6C341.3 407 307 386.2 270 370.2c-22.9-9.8-46.2-16.5-71.6-13.4-20.7 2.6-40.1 9.1-59.1 17.7-35 15.7-67.2 36.2-98.7 57.7C26.3 442 12.2 451.8-3 462.3c0-9.1 0-17.4.2-25.7 0-.9 1.2-1.9 2.2-2.6 41.5-27.9 83-56.1 128.8-77 22.4-10.2 45.3-18.3 69.9-20.5 22.2-1.9 43.2 2.8 63.7 10.7 32.9 12.7 63.4 30 93.7 47.9 35 20.7 69.6 41.7 105 61.3 36.5 20.3 75.3 35.6 116.9 42 22.4 3.4 44.9 5.5 67.3 8.6 30.8 4.3 61.5 9.3 92.1 13.8 34.6 5 69.1 10.7 103.8 13.9 37.7 3.6 69.7 18.6 99 41.5 30.8 23.9 57.5 52.2 84.2 80.6 25.7 27.4 51.3 54.8 80.2 78.9 14.5 12.1 30.3 22.4 47.2 30.8 23.6 11.9 48.9 15 74.9 15.2 36.5.2 72.5-5.3 108-12.9 36.5-7.9 72.8-16.5 109.3-24.8.5-.2 1.2-.3 1.7-.5v26.2h.9v-.1z"/>
      <path d="M1446 820.2c-5.7 1-11.5 1.9-17.2 2.9-37.2 6.9-74.2 14.5-111.6 20.8-32.9 5.5-66.3 7.2-99.7 4.1-22.2-2.1-42.7-9.6-61.5-21.3-10.7-6.7-20.8-14.3-30.8-22-29.4-22.4-53.7-50.1-79.2-76.6-26.2-27.2-52-55.1-79-81.4-14.5-13.9-30.8-26.2-47-38.1-26.9-19.8-57.3-29.4-90.9-31.3-44.9-2.8-89.9-1-134.8-.5-29.4.3-58.7-1.2-88.2-2.6-53.7-2.4-101.1-24.4-146-51.7-36.5-22.2-72.2-46-108.3-69-27.6-17.6-55.8-34.1-85.6-47.9-30.3-13.8-60.6-14.8-91.8-3.4-30.3 11-58 26.9-84.2 45.1-28.4 20.3-56.1 41.5-84.2 62-2.6 1.9-5 3.6-8.3 6.2 0-9.3 0-17.6.2-26 0-1 1-2.4 2.1-3.1 35.5-25.5 70.3-52 108.1-74 19.5-11.4 39.4-21.4 60.6-29.1 34.8-12.7 68.4-10.5 101.9 5 34.1 15.8 66.3 35 98 55.3 36.3 23.2 72.3 47 110.6 67.1 33.1 17.2 67.2 31.7 104.4 36.7 21.9 2.9 43.7 4.3 65.8 6 19.5 1.4 38.9 2.1 58.4 2.9 27.9 1.2 55.8 2.1 83.5 3.8 21.2 1.4 42.4 2.9 63.5 5.7 28.8 3.8 53.2 17.7 76.1 34.6 28.1 20.7 52.9 44.9 76.6 70.1 23.8 25.1 47.2 50.8 71.8 75.2 15.9 15.8 32.9 30.6 50.5 44.6 22.4 17.7 47.5 30.1 76.1 34.3 21.7 3.1 43.6 2.6 65.4.9 45.5-3.4 89.7-13.3 134.2-22.6 13.6-2.9 27-5.7 40.6-8.6l-.1 25.9z"/>
      <path d="M1446 621.2c-52.2 13.6-104.2 27.9-156.5 40.8-33.8 8.4-68.4 11.7-103.1 9.8-32.9-1.7-61.8-13.8-88.3-32.4-22.6-15.8-42.4-34.8-61.8-54.2-25-24.8-49.6-50.3-75.6-74-22.6-20.7-48.2-37.4-78.5-45.1-8.8-2.2-17.7-3.4-26.7-5.2-14.5-2.6-28.9-5.2-43.4-7.9-35.5-6.9-68.5-20.8-101.6-34.4-38.2-15.7-77.3-28.4-118.3-34.3-22.9-3.3-45.8-6.2-68-12.6-29.6-8.4-57.9-20.8-85.2-34.8-40.1-20.3-80.1-41.5-120.4-61.6-25.7-12.7-52.4-23.2-80.2-30-36.2-8.8-71.5-5.3-106.4 6.5-38.4 12.9-74.6 30.8-110 50.3-7.7 4.3-15.5 8.4-24.1 13.3 0-7.6-.2-14.6.2-21.5 0-1 1.4-2.2 2.4-2.8 41-22.2 82.5-43 126.7-58.4 47-16.4 93.3-15.2 140 1 32.7 11.4 63.7 26.2 94.5 41.8 31.5 16 62.9 32 94.5 47.3 40.8 19.8 83.7 32 128.8 37.4 40.8 4.8 79.7 17.6 117.3 34.1 28.6 12.6 56.7 26.3 86.6 35.1 13.6 4 27.4 7.6 41.2 10.3 15.3 3.1 30.8 4.6 46.2 7.7 26.7 5.2 49.8 17.9 71.1 34.3 23.4 17.7 44.1 38.4 64.4 59.4 24.6 25.3 48.9 51 77.5 72 23.2 17 48.4 30 77.3 34.6 21.4 3.4 42.7 2.9 64.1.9 44.4-4.3 87-16.7 129.5-28.9 27-7.7 54.4-14.5 81.6-21.7 1.4-.3 2.9-.3 4.5-.7v23.9h-.3z"/>
      <path d="M1446 670.1c-8.8 1.9-17.7 3.6-26.3 5.7-38.8 9.5-77.5 19.6-116.2 28.6-18.6 4.3-37.7 7.2-56.7 9.1-24.1 2.6-48.4 3.8-72.5-.5-28.6-5.2-53.2-18.8-76.1-36-24.5-18.4-45.6-40.3-67-62-22.9-23.2-45.5-46.7-69.4-68.7-20.7-19.1-43.7-35.1-70.4-45.1-16-6-32.7-7.9-49.4-10.3-10.5-1.4-20.7-3.6-31.2-5.7-9.6-1.9-19.3-3.3-28.6-5.9-19.8-5.3-39.8-11-59.4-17.2-40.5-12.9-81.1-24.3-123.1-30.6-22-3.4-44.1-6.7-65.8-11.7-28.2-6.5-54.9-18.4-80.4-32-38.1-20-75.6-41-113.3-61.3-23.4-12.6-47.4-23.8-72.2-33.4-43.6-17.2-87.1-17.7-131.1-1.6-32.9 12-64.3 27.5-94.7 44.7-14.6 8.3-29.1 16.9-44.4 25.8 0-8.1 0-15.7.2-23.2 0-.7 1.2-1.7 1.9-2.2 43.6-25.1 87.5-49.1 135.2-65.8 46.2-16.2 91.3-13.9 136.6 3.4 38.1 14.6 73.9 34.1 109.9 53.2 31.5 16.7 63.4 33.1 95.6 48.6 33.9 16.2 69.9 25.5 107.1 29.8 42.4 4.8 83 16.4 123 31 30 11 59.8 22.7 91.1 29.6 19.3 4.1 38.6 7.9 58.2 10.5 36.5 4.6 67.7 20.8 95.7 43.7 26.9 21.9 50.5 47 74.6 71.8 23.2 24.3 47 48.2 74.6 67.7 22.6 16 47 27.9 74.6 31.5 22.9 3.1 45.8 2.4 68.7 0 40.8-4.1 80.2-14.6 119.7-25.3 26.4-7.1 52.7-13.9 79.2-20.8 1-.3 2.1-.3 3.1-.5v25.1h-.8z"/>
      <path d="M1446 575.9c-9.6 1.9-19.6 3.4-29.1 6-36 10-71.8 20.5-108 30.5-35.5 9.8-71.6 16.5-108.7 17.6-44.1 1.2-82.5-12.9-117.1-39.4-23.2-17.9-43.9-38.6-64.4-59.4-25.3-25.8-50.5-52-80.4-72.7-18.4-12.7-38.4-22.4-60.4-26.7-14.6-2.9-29.6-4.6-44.4-7.4-35.6-6.4-68.9-19.6-101.4-35-23.2-11-46.7-21.9-70.6-31.3-27.9-11-57.2-17-87-20.7-38.1-4.6-74.6-15-109.2-31.2-35.5-16.7-70.6-34.1-105.7-51.3C321 236 282 217.8 240 207.4c-38.6-9.5-76.3-6.4-113.7 5.9C84 227.2 44 246.7 4.6 267.4c-2.1 1-4 2.1-6 3.1-.2.2-.5 0-1.4 0v-19.3c0-.9.9-2.2 1.7-2.8 49.3-25.3 98.8-49.9 153.3-62.7 33.2-7.7 66.1-4.6 98.8 4.1 36.9 10 71.5 25.5 105.7 42.2 44.8 21.9 89 45.3 135.9 62.8 29.6 11.2 60.4 17.4 91.8 21.3 38.4 4.8 74.6 16.7 109.4 33.4 24.5 11.7 48.6 24.3 73.2 35.5 29.8 13.6 61.5 21.4 94 25 36.2 4.1 67.3 19.3 95.2 42.2 22.6 18.4 42.9 39.4 63.2 60.1 23.6 23.9 47.4 47.7 75.6 66.5 34.6 23.1 72.8 31.3 114 29.1 37.4-2.1 73.4-10.5 109-20.8 31.2-9 62.2-18.3 93.3-27 11.2-3.1 22.7-5.3 34.1-7.9V576l.6-.1z"/>
      <path d="M1446 532.5c-3.3.3-6.7.3-9.8 1.2-41.8 11.7-83.7 23.8-125.5 35.6-35 9.8-70.1 18.1-106.6 19.3-27.9.9-55.1-2.2-80.9-13.6-23.1-10.3-43.7-24.4-62.2-41.7-23.1-21.7-45.3-44.2-67.8-66.5-20.7-20.1-42-39.3-67.3-53.7-19.5-11-40.3-17.6-62.3-20.1-40.5-4.5-78.7-16.2-114.9-34.8-22.9-11.9-45.6-24.1-68.9-35-32.5-15.3-67-24.1-102.8-28.2-29.8-3.4-58.6-11.5-86.6-21.9-31.7-11.5-62-25.8-92.1-40.8-39.4-19.5-78.9-38.9-120.5-53.2-22.7-7.7-46-13.6-69.9-16-26.3-2.6-51.7 1.9-76.6 9.5-33.9 10.3-66.5 24.3-98.3 39.8-10.5 5-20.8 10.3-31.2 15.5-1 .5-2.1.9-3.8 1.6 0-6.5-.2-12.6.2-18.4 0-1 1.4-2.2 2.2-2.8 28.2-13.1 56.5-26.5 85.1-39.1 21.9-9.6 44.8-16.9 68.2-22.4 31.9-7.4 63.2-4.8 94.5 3.1 38.7 9.6 75.1 25.1 111.1 42 9.8 4.6 19.6 9.3 29.3 14.1 37.4 18.2 74.7 36.2 114.2 49.6 28.9 9.8 58.6 16.4 88.9 20 40.5 4.8 78 18.9 113.8 38.2 21.2 11.4 42.2 22.7 63.7 33.4 29.6 14.6 61.3 22.4 94.2 26 33.1 3.4 62.3 16.4 89 36 23.9 17.7 44.9 38.9 65.8 59.9 19.8 20 39.8 39.9 62 57.5 38.4 30.3 81.6 44.2 130.5 41 31.3-2.1 61.8-8.1 92-16.7 33.8-9.8 67.2-20.3 100.9-30 14.1-4 28.8-6.4 43.2-9.5v21h-.8v.1zM1185.3 881c-11.2-6.9-22.7-13.1-33.4-20.7-12.2-8.8-23.9-18.3-35.1-28.4-33.6-30-63.6-63.7-93.9-96.8-25.8-28.2-52.3-56-82.3-80.1-19.3-15.5-39.6-29.6-62.7-39.1-15.8-6.4-32.5-8.6-49.6-9.5-34.6-1.7-69.1.9-103.2 7.6-31.3 6-62.9 9.1-94.9 9.5-45.3.3-87.3-10.7-127.1-31.9-45.3-24.3-87.3-53.5-129.5-82.8-32.5-22.6-65.4-44.8-101.3-62.3-19.5-9.6-39.4-16.5-61.8-12.9-16.2 2.6-31.5 7.9-46.3 15-21 10.2-40.8 22.2-59.4 36.2-20.7 15.5-41 31.7-61.3 47.7-13.1 10.5-26 21.3-39.1 31.9-1.9 1.5-4 3.1-6.9 5.3v-13.1c0-3.4.5-6.9.2-10.3-.3-3.6.9-5.9 3.8-7.7 5-3.4 10-7.2 14.8-11 11-8.6 22-17 33.1-25.7 10.8-8.4 21.5-17.2 32.5-25.3 7.6-5.7 16-10.3 23.9-15.7 7.1-4.6 13.8-10 21-14.3 9.6-5.7 19.8-10.7 29.8-15.8 14.5-7.6 29.6-13.1 45.8-16.2 17.4-3.3 34.3-1.6 50.8 4.5C279 428.6 303 442.2 326 457c31.2 20 61.5 40.8 92.5 61.1 32.9 21.5 66 42.2 101.9 58.4 33.8 15.2 69.1 21.5 105.9 22.6 33.2 1 66.3-.9 99.4-4.5 40.6-4.5 81.3-5.7 121.9-1.2 22.2 2.4 42.2 11 61 22.7 28.2 17.7 53.4 39.4 76.5 63.2 27.6 28.6 54.2 57.9 81.8 86.4 14.5 15.2 29.3 30 44.6 44.4 20.7 19.6 43.4 36.7 69.6 48.6 19.8 9 40.6 12.1 62 12.6 40.5 1 80.4-4.1 120-11.4 27.7-5.2 55.3-10.5 83-15.8v25.1c-10.3 1.9-20.8 3.8-31.2 5.7-9.8 1.9-19.6 4-29.6 6h-200.1l.1.1zM1446 76.2c-11 .9-21.9 2.1-32.9 2.6-30.8 1.4-61.8 3.1-92.7 3.8-44.4 1.2-88.7-3.8-132.3-11.5-63.9-11.4-127.4-23.8-191.1-36-38.9-7.6-78.2-13.4-117.6-17.4-50.4-5-95.4-23.4-135.8-53.5-21.4-16-42.9-31.5-65.1-46.3-28.8-19.1-59.9-33.1-94.4-38.4-25.1-4-50.5-4.6-75.8-3.1-35.1 2.2-70.1 5.2-105 8.6-56.1 5.5-112.1 12.7-168.6 12.7-21 0-41.8-1.2-62.9-2.9-34.8-2.9-69.2-.5-103.5 6.2-11.7 2.2-23.6 4-35.5 5.9-10.3 1.5-20.4 2.9-30.8 4.2-1.2 0-2.6 0-4.3.2v-18.9c11.2-1.5 22.2-2.6 33.2-4.5 12.2-2.1 24.3-4.5 36.3-6.9 34.3-6.9 68.5-10.7 103.5-7.1 41 4.3 82 3.4 123 .7 57.2-4 114.3-8.8 171.5-12.6 29.3-1.9 58.7-2.4 88.2-2.8 31.2-.3 60.8 7.4 89.2 20.3 23.8 10.7 45.6 24.4 67.3 38.7 24.3 16 48.4 32.2 73.4 46.7C814.6-17 848.7-6.9 884.9-3.9c46.8 3.8 92.8 13.1 138.6 23.1 45.3 9.8 90.6 20.1 136.2 28.9 49.6 9.5 99.5 16.4 150 15.5 35.3-.5 70.6-2.8 105.7-4.5 10.2-.5 20.2-1.5 30.1-2.4v19.5h.5z"/>
      <path d="M1446 492.6c-50.3 9.5-98 27.5-147.1 41-30 8.1-60.1 13.8-91.3 15.3-50.3 2.6-93.5-14.1-131.9-45.5-26-21.2-49.1-45.5-73-69-19.1-18.8-38.7-36.7-61.1-51.5-24.5-16.2-51.1-26-80.4-28.9-38.7-4-75.1-15.5-109.4-34.1-22-12.1-43.7-24.3-66.1-35.5-31.5-15.5-64.9-25-99.9-28.8-41.2-4.5-80.1-16.9-118.1-32.9-16.4-6.9-32.5-14.3-48.7-21.7-35.6-16.2-71-33.1-106.9-48.6-29.6-12.7-60.4-22.2-92.6-27-27-4.1-53.2-1-79.2 6.4C100.5 143.1 63 159.4 26 177.1c-9.3 4.5-18.6 9.1-28.4 13.9v-17c32.7-16.5 66.1-32.4 100.7-45.5 21.5-8.1 43.2-15.2 65.8-19.6 27.7-5.5 54.9-2.9 82 3.8 40.6 10.3 79.2 26 117.3 43.4 20.1 9.1 40.3 18.4 60.3 27.9 30.1 14.1 60.8 27 92.6 37.2 25.5 8.3 51.7 13.3 78.2 16.5 42.2 5.2 81.1 20.1 118.1 40.8 22.6 12.6 45.5 25 68.9 36 26 12.4 53.9 18.1 82.5 21.2 31.2 3.3 59.1 14.8 84.7 32.5 21.7 15 40.8 32.9 59.9 50.8 22.4 21.2 44.6 42.5 67.8 62.5 22 18.9 47 33.2 75.2 41.1 23.9 6.7 48.2 7.2 72.7 5.5 40.3-2.9 78.7-14.3 117.3-25.5 33.2-9.6 66.8-18.6 100.2-27.7 1.4-.3 2.8-.3 4-.5v18.1h.2v.1zm0-378.3c-14.8.7-29.4 1.4-44.3 2.2-51.5 2.8-103 3.4-154.5-2.9-61.7-7.7-122.6-18.8-183.8-29.6-45.8-8.3-91.8-15.7-137.9-22.6-21.5-3.3-43.2-4.8-64.8-7.2-43.6-4.8-82-22.6-116.8-48.6C723.2-10 702.6-26 681.2-40.8c-29.4-20.5-61.5-35.8-97.5-41.5-26-4-52.4-5-78.5-3.3-45.3 3.1-90.6 7.1-135.7 11.4-52.4 5.2-104.7 10.8-157.6 9.3-18.8-.5-37.5-2.4-56.5-3.6-26.3-1.9-52.4.3-78.4 5.3-19.3 3.8-38.6 7.4-57.9 10.7-6.9 1.2-14.1 1.3-21.6 2v-19.1c4.1-.3 8.6-.5 12.9-1.2 18.6-2.9 37.4-5.5 55.8-9.3 38.6-7.7 77.5-9.1 116.6-5.3 40.3 4 80.8 2.9 121.1-1 51-5.2 101.9-11.2 152.9-16.2 35-3.4 70.1-4.3 105.4-2.1 41.8 2.6 79.9 16.7 114.2 40.3 22.4 15.3 43.7 32 65.6 48.2 21.9 16.2 44.8 30.8 70.6 39.8 21 7.4 42.9 11.5 64.9 13.6 51.7 5.2 102.8 13.8 153.8 23.1 60.3 11 120.4 21.9 180.8 31.7 52.3 8.6 105 10.7 157.9 7.2 25.1-1.5 50.3-2.8 75.4-4.1v19.3l.6-.1z"/>
      <path d="M1446 458.1c-14.3 3.4-28.8 6.5-43.1 10.3-36.3 10-72.3 21-108.8 30.6-27.4 7.2-55.6 10.8-84 11.5-44.4.9-83.9-13.1-119.5-38.9-26.5-19.3-50.1-42-74.1-64.4-20-18.8-40.1-37-62.5-52.9-27.6-19.3-57.5-32-91.3-35.3-42.2-4.1-80.9-18.4-117.4-39.3-20.7-11.7-41.5-23.4-62.9-33.7-29.8-14.5-61.7-22.6-94.5-26.3-35.5-4-69.4-13.9-102.6-26.7-16.2-6.2-32-12.9-48-19.8-42.2-18.1-84-36.8-126.4-54.4-24.1-10-49.1-17.4-74.6-23.2-33.1-7.6-65.6-4.5-97.8 5-40 11.9-78.2 28.4-115.7 46.5-8.3 4-16.4 8.1-25.3 12.4 0-4.5-.2-8.1.2-11.9 0-1 1.2-2.4 2.2-2.8 46.2-22.7 92.6-44.6 142.4-58.5 27.2-7.6 54.8-11.9 82.7-5.9 19.6 4.1 39.1 9.1 58.2 14.8 42.9 13.1 83.7 31.5 124.9 49.2 15.8 6.7 31.5 13.4 47.4 20 39.6 16.2 79.7 30.1 122.1 36.7 17.9 2.8 35.8 5 53.4 9.1 29.1 6.7 56 19.3 82 34.1 18.4 10.5 37 21 55.8 30.8 29.4 15.5 61.1 24.3 94 27.5 35.1 3.4 66.3 16.9 95.2 36.5 27.7 18.9 52.2 41.8 77.2 64 23.1 20.7 46.5 40.8 72.8 57.3 37.2 23.4 77.7 32.4 121.4 29.3 39.4-2.8 77.7-12.6 115.6-22.7 33.6-9 67.3-17.7 100.9-26.7v17.6h.1v.2zm0-307.6c-13.6.7-27 1.4-40.6 2.1-44.4 2.4-88.7 1.7-132.9-2.6-20-2.1-40.1-3.1-59.8-6.2-36.9-5.7-73.5-12.6-110.4-19.1-54.6-9.8-109-20.3-163.8-29.6-21.9-3.6-44.1-5.2-66.1-6.9-48.9-3.8-92.5-21-131.6-50.4-22.9-17.2-46-34.3-69.7-50.3-28.4-19.1-59.8-32.2-94-36.5-27-3.4-54.2-4.1-81.3-2.4-49.1 2.9-98.2 6.5-147.2 9.8-50.6 3.4-101.1 7.1-151.9 4.6-15.2-.7-30.3-2.4-45.6-3.4-33.8-2.4-66.3 4.3-98.8 12.1-16.7 4-33.9 7.1-51 10.5-1 .2-2.1 0-3.4 0v-15.7c6.9-1 13.9-1.7 20.8-2.9 22-4.3 44.1-8.8 66-13.3 29.1-6 58.6-5.9 87.8-2.9 30.5 3.1 61 3.8 91.3 1.7 60.3-4.3 120.5-9.6 180.8-14.5 35-2.8 69.7-4.5 104.9-3.4 48.2 1.5 91.3 17 130.4 44.4 22 15.4 43.7 31.8 65.4 48.1 39.6 30 84.4 45.5 133.5 49.1 62.2 4.5 123.1 16 184.3 27.4 44.2 8.3 88.5 16.7 133.1 23.6 29.4 4.5 59.2 6.7 88.9 9.6 50.3 5 100.8 1.2 151-1.5 3.3-.2 6.6-.3 10-.3l-.1 18.9zM1131.9 881c-6.7-6.4-13.6-12.7-20.2-19.3-8.9-9-17.7-17.9-26.3-27-35.5-37.5-70.4-75.2-106.1-112.4-19.3-20-40.8-37.5-63.2-54.1-31.7-23.1-66.5-34.3-105.9-32-31.2 1.7-61.1 8.1-90.6 18.1-34.1 11.7-69.2 16.7-105.4 16-30.1-.5-57.9-9.1-84.7-21.5-41.2-18.9-78.5-44.1-115.6-69.9-36.7-25.7-73.4-51.5-110.2-76.6-11.2-7.6-23.6-13.4-35.5-20-25.1-13.8-51-13.8-77.1-3.3-28.8 11.4-54.4 28.1-78.2 47.3-28.4 23.2-56 47.9-83.9 71.8-10 8.6-20.1 17.2-31.3 26.5v-27.5c0-.9 1-1.7 1.7-2.4 33.4-27.7 66.5-55.8 100.4-83.2 23.2-18.8 48.2-35.3 75.6-47.7 18.4-8.3 37.5-14.1 58.2-12.2 13.3 1.2 25.5 6.2 37.2 12.1 34.1 17 65.4 38.6 96.6 60.1 35.5 24.4 71 49.1 107.1 72.7 27.9 18.1 57.5 33.1 89.7 42.2 27 7.6 54.8 8.1 82.7 6.9 27.2-1.2 53.6-6.5 79.7-13.4 38.4-10 77.3-13.9 116.9-10.3 20.7 1.9 39.1 9.5 56.7 19.8 27.9 16.5 52.9 37 75.6 60.1 31.9 32.7 62.7 66.5 94 99.7 12 12.7 23.6 26.3 36.5 38.2 15 13.8 31.3 26.3 47.2 39.3.7.5 1.2 1.2 1.9 1.9h-23.6l.1.1z"/>
      <path d="M1095.7 881c-5.3-5.7-10.7-11.5-16-17.2-30.5-33.1-60.6-66.5-91.6-99.2-25.7-26.9-53.6-51.1-84.4-72.1-32.4-22-67.8-28.9-106.4-24.1-26.3 3.3-50.6 11.9-74.2 23.2-24.3 11.5-49.3 20.5-75.9 23.8-37.4 4.6-72.8-.7-107.1-16.5-34.8-16.2-67.3-35.8-98.3-58.2-34.8-25-68.9-51-103.5-76.1-23.6-17.2-47.9-33.1-73.9-46.3-19.8-10.2-39.8-10.5-60.4-3.4-22.2 7.6-41.8 20-60.8 33.6-29.3 21.2-54.9 46.5-81.3 71.3-19.6 18.4-40 36.5-59.8 54.6-1 1-2.4 1.9-4.5 3.4 0-5.9.5-11.2-.2-16.2-1-8.3 2.4-13.1 8.6-18.4 24.3-21 47.9-42.7 71.6-64.4 27-24.4 54.6-47.9 86.1-66.5 13.3-7.9 27.2-14.3 42-18.8 20.1-6 39.6-4.3 58.4 5.2 27.9 13.9 53.9 30.8 79.2 48.9 35.3 25.3 70.1 51.3 105.7 76.1 31.9 22.4 65.6 41.7 101.9 56.3 32.5 13.1 66.1 15.3 100.4 11.4 27-3.1 52.5-11.9 77.7-22 35.5-14.5 72.3-20.3 110.7-17.6 19.8 1.4 37.5 8.4 54.4 18.1 27 15.5 50.6 35.5 73.2 56.6 35 32.9 66.1 69.4 98.8 104.5 13.8 14.8 28.1 29.3 42.2 43.9 1.9 1.9 3.6 4 5.5 5.9h-18.2l.1.2z"/>
      <path d="M1062.2 881c-24.8-27.2-49.3-54.6-74.6-81.4-23.4-24.8-48.7-47.7-76.6-67.5-16-11.4-32.7-21.7-51.7-27.5-22.6-7.1-45.6-5.9-68.5-2.4-23.8 3.6-44.8 13.8-65.1 26-19.3 11.5-38.7 22.6-61 28.2-45.1 11.4-88 5.7-129.5-15-44.4-22.2-85.1-50.1-124.5-80.1-32.4-24.6-64.6-49.6-97.5-73.5-15-10.8-31-20.1-47-29.8-19.5-11.5-40-11.9-61-4-24.8 9.1-46 24.3-66.5 40.6-25.4 20.6-47.6 44.5-70.7 67.4-21.4 21.2-43.7 41.8-65.8 62.8-1.2 1-2.6 2.1-4.6 3.6 0-8.8 0-16.7.2-24.6 0-1 1-2.1 1.9-2.8 31.7-26 59.8-55.8 89-84.2 26-25.3 52.7-49.8 84.4-68 11.7-6.7 24.3-12.1 37-16.7 20.5-7.4 40.3-3.8 59.2 6.7 32.2 17.9 62.2 39.3 91.4 61.6 37.9 28.9 75.3 58.5 115.6 84.2 13.4 8.6 27 17.2 41.2 24.6 20.5 10.7 41.7 20.5 64.4 25.7 27.2 6.2 54.4 4.6 81.6-1 23.4-4.8 44.3-15.5 64.9-26.9 31.9-17.4 65.6-25.8 102.1-24.6 21.5.7 41.2 7.2 59.6 17.9 25.8 15 48.7 33.9 70.6 54.1 30.1 27.5 57.2 58 84.4 88.2 10.5 11.5 20.8 23.1 31.3 34.4 1 1.2 2.1 2.6 3.1 3.8h-17.4l.1.2z"/>
      <path d="M1027.7 881c-9.8-10.8-19.5-21.9-29.4-32.4-27-28.8-55.3-56.1-87-79.5-18.8-13.9-38.2-27-61.5-31.7-40.5-8.3-78.9-2.2-113.8 21.2-13.3 9-26.2 18.2-40 26.5-26.2 15.8-55.1 21.3-85.4 20.5-30.7-.9-58.2-11.9-84.9-25.8-12.2-6.4-24.1-13.1-35.8-20.3-36.2-22.7-70.3-48.2-103.5-74.9-34.8-27.9-69.4-55.8-107.1-79.5-4.5-2.8-9-5.5-13.6-8.3-20-12.2-40.6-11.5-61.7-3.3-20.1 7.9-37.9 20-54.6 33.2-29.8 23.8-55.1 51.8-80.8 79.7C48 728.8 27.2 751 3.7 770.6c-1.7 1.4-3.4 2.9-6 5 0-8.3 0-15.7.2-22.9 0-.9 1.2-1.7 1.9-2.2 24.8-20.1 46.8-43 68.7-66.3 25.1-26.5 49.9-53.2 78.7-75.9 16.9-13.3 34.6-25.1 54.6-33.6 25-10.5 48.4-9 71.5 5.7 32.7 20.7 63.9 43.4 94.2 67.3 35.6 28.1 71.1 56.3 109.4 81.3 26.3 17.2 53.4 32.9 83 43.9 52 19.3 101.8 13.6 149.1-15.3 14.3-8.8 28.2-18.1 43.1-25.8 24.5-12.9 51.1-16.2 78.5-15.3 22.7.9 42.9 9 61.8 20.7 24.3 15 46 33.1 66.8 52.3 30.7 28.4 58.6 59.6 86.3 90.7.4.3.5.7.7 1.2h-18.4l-.1-.4zM1446 426.5c-17.7 4.3-35.5 8.4-53 12.9-38.6 10-77 21.2-116.4 27.9-32.2 5.5-64.8 7.9-97.1 1.7-30-5.7-56.5-18.8-81.5-35.5-27.4-18.2-51.8-39.9-76.8-61.1-23.2-19.8-46.7-39.3-73-54.6-25.7-15-52.9-25.7-82.7-28.6-45.3-4.3-86.4-20.5-125.4-43.7C717 231.7 694 217.9 669 208c-25-10.2-51-17-77.7-20-39.8-4.5-78.2-15.2-115.4-29.6-45.5-17.6-90.2-36.5-135.7-53.7-28.6-10.8-57.9-19.8-87.1-28.8-38.6-11.9-77.3-10.2-115.9 1.4-37.5 11.2-73.5 26.2-108.8 42.9-10 4.8-20.1 9.6-30 14.5-.3-.3-.5-.5-.7-.9-1.5-6.9 1.2-10.5 7.7-13.6 39.1-18.4 78-36.7 119.3-49.4 26.3-8.1 53-14.6 80.9-12.7 22 1.5 43.4 6.9 64.8 12.7 46.7 12.9 91.8 30.6 136.9 48.2 21.7 8.4 43.4 16.4 65.3 24.3 33.4 12.2 67.7 21.9 102.8 27.4 16.7 2.6 33.4 4.6 49.9 8.3 34.6 7.6 66.1 23.1 96.4 41.3 22.4 13.6 45.1 26.9 69.4 37 22.9 9.6 46.8 15.2 71.3 17.7 41.2 4.1 78 19.8 111.2 43.6 30 21.5 58.7 44.8 88 67.3 23.8 18.3 48.4 35.3 75.8 48.2 36.5 17.2 74.9 21.7 114.7 18.3 43.6-3.8 85.8-15 128.1-25.3 22-5.3 43.9-10.7 65.8-16v15.5-.1zm0-242.6c-44.1 3.1-88.2 6.5-132.4 3.4-45.8-3.1-91.8-6-137.1-15.5-46.7-9.6-93.3-20.1-140-30.1-38.2-8.3-76.3-16.5-115.2-20.8-21.4-2.4-42.5-4.3-63.9-6.5-40.1-4.3-76.1-19.1-108.8-42.2-22.6-16-44.8-32.7-67.7-48.4-28.2-19.3-58.6-34.4-92.6-40.1-17.6-2.9-35.6-4.1-53.6-4.5-68.7-1.5-137.3 2.4-205.8 4.3-38.7 1-77.5 1.4-116.2 1-20.3-.2-40.6-2.6-61-3.8-30-1.9-58.9 4-87.5 11.7C43.9-2.1 23.6 3.2 3.1 8.8c-1.5.3-3.3.7-5.2 1V-3c12.7-2.9 25.7-5.9 38.4-8.8 19.6-4.6 39.3-9.8 58.9-13.9 22.9-4.8 46.2-5 69.4-2.8 38.4 4 76.8 4.1 115.2 2.4 49.9-2.2 99.7-5.2 149.6-7.7 41.2-2.1 82.1-4.1 123.5-2.2 40.3 1.9 77.7 12.9 111.4 34.4C686.2 12.3 707 27.8 728 43c23.9 17.2 47.9 34.1 75.8 44.6 22.6 8.6 46.2 13.1 70.1 14.6 65.1 4.6 129 16.9 192.9 30.5 33.2 7.1 66.5 13.6 99.7 20.1 36.8 7.2 74.2 10.2 111.6 14.1 54.6 5.7 109 2.9 163.6-.3 1.6-.2 2.9 0 4.5 0v17.2l-.2.1z"/>
      <path d="M989.8 881c-4.8-5.3-9.6-10.7-14.6-15.8-23.6-23.6-48.2-46.1-75.6-65.3-18.1-12.6-37.2-23.2-59.2-26.9-39.3-6.2-76.1-.7-108.5 24.1-9.1 6.9-18.3 13.8-27.4 20.8-30.1 23.2-64.4 31-101.8 28.1-35.3-2.8-67-16-97-33.7-15-8.8-29.8-18.4-44.1-28.4-40.6-28.1-78.2-59.9-117.1-90-25-19.3-51-37-76.6-55.3-19.3-13.8-40-15-61.8-7.1-23.2 8.4-43.2 21.9-62 37.4-25.1 20.8-46.8 45.3-68.5 69.6-22.7 25.5-45.1 51.1-71.3 73.2-1.9 1.5-4 3.1-6.7 5.3v-19.6c0-.9.9-1.9 1.7-2.4 27.2-22 50.5-47.9 73.9-73.7 22.2-24.4 44.1-49.1 69.6-70.4 18.9-15.8 38.7-30.1 62.2-39.1 22.6-8.8 43.6-6.9 64.2 6.2 31.3 19.8 60.8 42 89.7 64.9s58 45.8 87.5 67.8c31.5 23.6 64.9 44.2 101.3 59.9 40.1 17.4 80.9 20.5 122.4 6 16-5.5 29.8-14.8 43.4-24.8 10.3-7.6 20.7-15.2 31.5-21.9 26-16.2 54.9-19.8 84.9-18.1 28.1 1.7 51.7 14.5 73.9 30.3 33.9 24.1 63.7 52.9 92.3 83.2 4.8 5.2 9.6 10.3 14.5 15.7h-20.8z"/>
      <path d="M560.7 881c-12.7-5.2-25.7-9.8-38.1-15.5-25.1-11.7-48.4-26.5-70.4-43.2-40.6-30.8-80.6-62.7-121.2-93.5-21.7-16.4-44.3-31.3-66.5-46.8-25.3-17.7-51.1-15.3-77.5-2.4-25.5 12.6-48.2 29.6-68.2 49.4-24.8 24.4-48.2 50.3-72.5 75.2-13.8 14.1-28.3 27.6-42.4 41.3-1.7 1.7-3.6 3.1-6.2 5.2v-15.8c0-.9.9-1.9 1.5-2.4 27.6-22.7 51.1-49.4 74.9-75.9 23.4-26 47-51.8 74.7-73.5 16.7-13.1 34.3-24.4 54.4-31.9 20.8-7.6 40.5-6.7 59.8 5.2 28.6 17.7 55.5 37.5 81.6 58.4 27 21.3 53.7 42.9 80.9 64 28.8 22.2 58.4 43 90.6 60.3 25 13.3 51.1 23.2 79.4 26.5 38.9 4.5 74.6-3.1 106.3-27.4 13.1-10 26.2-19.8 39.8-29.1 21.9-15 46.8-18.8 72.8-18.8 35.3 0 64.8 14.8 92 35.3 22.6 17 43.7 35.5 63.4 55.8h-23.6c-.3-.5-.7-1.4-1.2-1.7-18.4-16.7-37.5-32.5-58.6-46-32-20.5-66.8-26.3-103.8-20.1-22 3.8-40.8 14.8-58.6 28.1-13.1 9.8-26.3 19.6-40 28.8-6.7 4.5-14.6 7.4-22 11.2H560.7v-.7zM1446 397.5c-16.4 3.8-32.6 7.6-48.9 11-36.3 7.7-72.3 16.2-108.8 22.6-36.2 6.4-72.7 7.1-108.7-1.9-32.7-8.3-62.3-23.6-89.7-42.7-28.4-19.8-56.1-40.8-84.2-61.1-28.2-20.3-57.5-38.7-90.6-50.6-19.5-7.1-39.6-10.2-60.1-12.6-35.6-4.3-68.7-16.7-99.7-34.8-21.9-12.7-43.6-25.8-66-37.7-32.5-17.4-67.5-27.2-104.2-31.2-30.5-3.3-60.4-10.2-89.5-19.8-53-17.9-105.7-37-158.8-55.1-36.2-12.3-72.8-23.5-110.6-30.4-27.7-5-54.9-2.6-82 4.3C106.7 66.9 70.9 81.4 36 97.6c-12.6 5.9-25 11.7-37.7 17.6-1.7-7.4-1.5-7.6 4.8-10.7C40.5 86.6 78.2 69.4 118 57.2c27.7-8.4 55.6-15 84.9-13.4 22.7 1.2 44.8 6.5 66.6 12.1 44.3 11 87.3 25.7 130.5 39.9 27.2 9.1 54.4 17.9 81.8 26.3 37.7 11.7 76.1 19.3 115.2 24.3 40.3 5 77 20.1 111.8 40.8 22.2 13.1 44.3 26.3 67 38.6 27.9 15 58.2 22.4 89.4 25.7 37 3.8 70.8 16.7 103 34.4 30.1 16.7 58 36.8 86.3 56.3 27.9 19.1 56 37.7 86.8 51.8 39.3 18.1 80.4 24.6 123.3 21.9 47.7-3.1 93.9-14.3 140.2-24.3 13.8-2.9 27.4-5.9 41.2-8.8v14.8-.1z"/>
      <path d="M1446 218.3c-14.1 1-28.2 2.1-42.4 3.1-41.7 2.8-83.2 2.9-124.7-1.7-24.8-2.8-49.6-5-74-8.8-21-3.4-41.8-8.4-62.7-13.6-61.8-15-123.3-31.2-185.3-45.1-26-5.9-53-8.3-79.7-10.7-49.6-4.3-94.9-19.3-135.2-48.7-22.4-16.2-44.8-32.2-68-47.2-37-23.8-77.5-37.4-121.8-38.4-51-1.2-101.9-2.6-152.9-3.6-61.8-1.4-123.6-2.2-185.5-3.8-16-.3-31.9-2.1-47.9-3.3-31.2-2.1-61.7 2.1-91.6 11.2-23.9 7.3-47.6 15-71.6 22.4-1.5.5-3.1.9-5 1.4V21.3C22.3 14.1 47 6.9 71.6-.2 92.4-6.1 113.4-11 135.1-11c18.1 0 36.2 1.5 54.2 2.2 18.4.7 36.7 1.9 55.1 2.1 47 .2 94.2-.3 141.2-.5 46.5-.2 93-.5 139.3-.3 26.5.2 53 1.2 79 8.3C635.6 9.3 664 24.4 690.5 43c21.5 15 42.7 30.5 64.2 45.5 33.8 23.4 71.6 35.1 112.3 39.4 30.7 3.3 61.7 6.2 92 11.5 33.1 5.7 65.8 13.9 98.5 21.3 24.4 5.5 48.9 11.7 73.4 17.7 51.5 12.7 103.8 19.5 156.5 24.1 53 4.6 105.7 1.7 158.6-2.2v18z"/>
      <path d="M1446 369.5c-16.7 3.4-33.4 6.9-50.1 10.2-33.9 6.9-68 13.4-102.5 17.4-62.7 7.2-121.8-3.6-176.7-35-30.7-17.6-60.6-36.7-90.8-55.3-30.3-18.9-61-37.4-94.5-50.1-22-8.4-44.9-13.8-68.5-16.2-42.5-4.1-81.1-19.6-117.3-42-17.9-11.2-35.8-22.2-54.2-32.5-35.1-19.6-73.2-30.5-113.3-35-19.1-2.1-38.2-5.9-57-10.2-54.6-12.2-107.6-29.8-161-46.1-40.8-12.4-82-23.2-123.8-32-42-8.8-82.7-3.6-123 9.3-38.6 12.2-75.5 29.1-112 46.1-1 .5-2.1 1-3.4 1.5-1.2-4.3-.3-6.9 4-9C39.4 73.7 76.8 56.5 116.4 45c22.7-6.5 46-12.2 69.7-11.7 17.4.3 35 2.4 52.2 5.3 58.4 10.2 115.4 27 172.6 42.5 37 10 74.4 19.5 111.9 27.7 24.6 5.3 49.9 8.1 74.9 11.9 37.4 5.9 71.6 19.6 103.8 39.1 23.4 14.1 46.5 28.6 70.3 42 29.1 16.5 61 25 94.2 28.2 33.8 3.4 65.8 13.1 96.6 27.2 40.6 18.6 78.4 42.5 117.1 64.7 32.9 18.8 66.5 36.2 103 47 33.4 10 67.5 12.7 102.1 10.8 48.6-2.8 95.9-12.7 143.4-21.7 5.9-1 11.9-2.2 17.7-3.3l.1 14.8z"/>
      <path d="M1446 251c-11.5 1-23.1 1.9-34.6 2.9-51.7 5-103.2 4.8-154.8-.9-47.7-5.2-93.8-16.2-139.5-30.3-40.8-12.6-81.6-25.5-122.4-37.7-43.6-12.9-88.3-20.5-133.8-23.8-35.1-2.6-67.5-14.5-97.1-32.9-23.6-14.6-46.2-30.8-69.1-46.3-30.5-20.7-62.9-37.2-99.4-44.2-16.5-3.1-33.4-4.8-50.3-6-54.4-3.8-109-6.9-163.4-10.3-59.8-3.8-119.5-7.7-179.3-11.9-20.1-1.4-40.3-3.3-60.4-1.9-24.6 1.9-48.6 7.6-71.8 15.5-22.3 7.6-44.5 15.7-66.5 23.4-1.7.7-3.6 1.2-5.5 1.9-.9-8.3-.7-8.1 6.4-10.5C27.7 30.4 50.8 22.5 74 15 110.7 3.1 148.1 0 186.6 3.1c36.9 3.1 73.7 4.3 110.7 5.9 72 3.1 144.1 5.9 216.1 8.8 20.3.9 40.6 1.9 61 3.6 35 3.1 67 15.3 96.6 33.6 21.5 13.3 42 28.2 62.9 42.5 22.4 15.3 45.1 30.1 71 39.4 20.7 7.6 42.2 12.1 63.9 13.6 62.5 4.8 123 18.8 182.7 36.5 19.3 5.7 38.6 11.2 57.7 16.7 37.5 10.7 75.2 20.7 113.8 26.2 57.5 8.3 115.2 11.4 173.2 7.1 16.7-1.2 33.4-2.6 50.1-4v18h-.3z"/>
      <path d="M1446 341.4c-15.2 2.6-30.3 5.2-45.5 7.7-40.5 7.1-80.9 13.3-122.1 13.9-46.3.9-90.4-9-132.9-26.5-32.9-13.6-64.2-30.6-95.4-47.5-35-18.8-69.9-37.5-107.3-51-25.1-9.1-51.1-15-77.8-17.6-38.9-3.8-74.9-16.4-108.3-36.7-23.6-14.3-46.7-29.4-70.6-43.2-32.9-18.8-68.2-29.8-106.1-33.9-19.8-2.1-39.3-5.9-58.9-9.1C457.5 86.9 395.7 68.3 333 54.4c-37.2-8.3-74.7-15.3-112.3-22.2-35.6-6.5-70.6-1.7-105 8.3-38.8 11-75.3 27.3-112 43.8-1.9.9-3.8 1.7-5.7 2.6-1.4-4.3 0-6.4 4-8.1 35.5-15.5 71-31.3 108.3-42 26.3-7.6 53.2-12.9 80.8-10.8 24.1 1.9 48.4 4.6 72.2 9.3 62 11.9 123.8 25.1 185.6 37.7 45.5 9.3 91.3 17 137.4 22.4 35.5 4 68.4 15.8 99 33.7 22 12.9 43.2 26.9 64.8 40.5 33.6 21.2 69.6 36 109.4 40.1 22.6 2.4 44.8 5.7 66.6 11.9 31.9 9 62.2 22 92 36.3 35.1 16.9 70.1 34.6 105.6 50.6 36.5 16.5 74.7 28.2 114.7 33.4 29.3 3.8 58.7 4.3 88 .9 38.8-4.5 77.3-10.5 116.1-16 1.2-.2 2.4-.5 3.4-.9v15.5h.1z"/>
      <path d="M1446 281.7c-23.1 2.6-46.2 5.7-69.2 7.9-28.9 2.9-58 3.8-87.3 2.2-54.9-2.9-108.1-13.4-159.8-32.2-15.5-5.7-30.7-11.7-46.2-17.2-49.6-17.9-98.2-38.9-149.8-49.9-24.1-5.2-48.7-8.1-73.4-10.8-33.6-4-65.3-13.9-94-31.3-23.6-14.3-46.3-30-69.4-45.1C666.2 85 633.7 69 597.4 62.5c-18.6-3.3-37.4-4.8-56.1-7.1C486.1 49 431 43 375.7 36.6c-34.3-4-68.5-8.3-102.8-12.2-23.6-2.8-47-5.2-70.6-7.4-43.2-4.1-85.6 1-126.4 15.8-24.6 9-49.1 18.8-73.5 28.1-1.5.5-3.1 1.2-4.6 1.7-1.5-5 .2-7.2 4.8-8.8 27.7-9.8 55.1-20.3 83-29.6 35.3-11.9 71.8-14.8 108.7-11.7C248.1 17 302 22.4 355.9 27.2c56.3 5 112.6 9.6 168.9 15 24.8 2.2 49.6 4.1 74 8.6 35.5 6.4 67 23.1 97 42.9 24.5 16.2 48.7 33.1 73.7 48.2 29.6 17.9 62.2 27.5 96.8 30.1 51.7 4 101.4 15.7 150.3 32.2 20.7 7.1 41.3 13.9 62 21.2 36.5 12.7 73.2 24.8 110.7 33.9 26.9 6.5 54.2 9.6 81.8 12.6 47.4 5 94.5 2.4 141.7-2.6 10.9-1.2 21.9-2.6 32.7-4v16.4h.5z"/>
      <path d="M1446 312.5c-11.7 1.6-23.6 3.1-35.3 4.8-41 6-82.1 11-123.8 10.3-40.5-.7-80.1-7.9-118.7-20.1-39.3-12.2-76.5-29.4-113.7-46.5-39.3-18.1-78.7-35.8-120.5-47.5-23.9-6.7-48.2-10.3-73-12.7-39.3-3.8-74.9-17.9-108-38.7-21.4-13.4-42.4-27.7-64.1-41-32.4-19.6-67-32.7-104.9-37.5-31.3-4-62.9-7.7-94.2-12.7C452.4 65 415.2 58 378 51.3c-52.9-9.6-105.7-18.8-158.9-26-49.8-6.9-97.3.7-143.8 18.3-24.8 9.5-49.3 20-73.7 30-1.2.5-2.4 1-3.8 1.5-1.5-4.1-.3-6.4 3.8-7.7C33 55.4 64 42.7 95.5 31.8c35-12.1 71.5-15.2 108.1-10.8 51 5.9 101.6 12.9 152.4 20 62.3 8.6 124.9 17.6 187.2 26.2 20.3 2.8 40.8 4.5 61 8.3 31.7 6 60.4 19.6 87.5 36.7 22.9 14.5 45.1 29.8 68 43.9 32.9 20.5 68.9 32.4 107.6 35.6 48.7 4.1 95.4 17.2 140.7 35.5 20.7 8.3 41.2 17.4 61.8 25.7 48.7 19.6 97.8 38.9 149.8 48.7 40.5 7.6 81.1 10.5 122.1 6.9 33.2-2.9 66.3-7.2 99.4-10.8 1.5-.2 3.3-.2 5-.2v15.2h-.1v-.2zm0-272.4c-22.9 1.7-45.6 3.4-68.5 5-41.3 2.6-82.8 4-124.3.3-53.2-4.5-105.4-14.5-157.1-27.4-47.2-11.7-94.6-23.2-142.1-33.4-22.9-4.8-46.5-7.2-69.9-9.5-28.8-2.8-56-10.8-81.8-23.1-18.9-9-37-19.5-55.3-29.8-35.3-20-68.5-43.4-106.6-58.2-7.1-2.8-14.3-5.3-21.4-8.6 12.2 0 24.3-.2 36.5.2 2.2 0 4.7 1.4 6.7 2.4 28.6 14.5 57.3 28.8 85.8 43.7 37 19.6 74.7 37.2 115.9 46.1 12.1 2.6 24.5 3.4 36.7 4.6 31 2.9 61.5 9.3 91.4 17.2 42.6 11.6 85 23.5 127.3 35.4 54.1 15.3 109.4 23.2 165.5 25.3 41.2 1.5 82-.7 123-4.5 12.7-1.2 25.5-2.6 38.2-4v18.3z"/>
      <path d="M1446 5.7c-26.3 2.6-52.7 5.7-79.2 7.7-30.5 2.4-61.1 2.8-91.8 1.4-53.6-2.4-105.7-11.5-156.7-27.7-44.1-13.9-88.2-27.7-132.6-40.8-30.5-9-61.5-15-93.3-16.9-22.2-1.4-43.6-8.1-64.6-15.3-13.8-4.8-27.7-9.5-41.2-15.3-28.9-12.4-57.7-25.5-86.6-38.4-3.1-1.4-6.4-2.8-9.5-5 3.6 0 7.2.3 10.8 0 19.1-1.7 37 2.4 54.9 9.5 38.1 15 77.2 27.4 117.3 36 18.8 4 38.2 5.7 57.2 8.4 28.9 4.1 56.8 12.4 84.4 21.9 38.8 13.4 77.3 27.4 115.9 40.8 67.9 23.7 138 31.8 209.4 26.4 34.1-2.6 68.2-6.5 102.1-10 1-.2 2.1-.2 3.1-.2V5.7h.4zM-2.5 881c-1.9-10.5 3.3-16.9 10.7-23.9 22-20.8 43.1-42.7 64.2-64.4 20-20.3 39.6-41 62.2-58.7 17.4-13.8 35.8-26 56.5-34.8 24.8-10.5 47.7-8.3 70.6 6 31.9 20.1 62 42.5 91.3 65.9 14.5 11.5 28.9 23.2 43.6 34.6 34.3 26.7 69.1 52.5 106.9 73.9.5.3.9.9 1.2 1.2h-46.2c-.7-.7-1.2-1.4-1.9-1.9-25.5-18.9-51.1-37.5-76.5-56.6-16.7-12.6-32.9-26-49.4-38.9-25-19.3-50.6-37.5-77.8-53.5-20.8-12.4-42.4-13.9-64.6-4.8-8.8 3.6-17.4 7.6-25.7 12.2-32.4 18.6-59.8 43.6-86.1 69.7-16.4 16.4-32.4 32.7-48.7 49.1-8.4 8.4-17.2 16.4-25.8 24.6h-4.5v.3z"/>
    </g>
  </g>
</svg>
